<svg xmlns="http://www.w3.org/2000/svg" xmlns:xlink="http://www.w3.org/1999/xlink" viewBox="0 0 197.69 394.46" xmlns:v="https://vecta.io/nano"><style><![CDATA[.B{fill:#000004}.C{opacity:.38}.D{fill:url(#h)}.E{fill:url(#i)}]]></style><defs><linearGradient id="A" x1="1.67" y1="61.68" x2="2.19" y2="61.68" xlink:href="#AN"><stop offset="0" stop-color="#666"/><stop offset=".07" stop-color="#5c5c5c"/><stop offset=".29" stop-color="#414141"/><stop offset=".52" stop-color="#2e2e2e"/><stop offset=".75" stop-color="#232323"/><stop offset="1" stop-color="#1f1f1f"/></linearGradient><linearGradient id="B" x1="1.67" y1="96.45" x2="2.41" y2="96.45" xlink:href="#AN"><stop offset="0" stop-color="#fff"/><stop offset="0" stop-color="#fefefe"/><stop offset=".12" stop-color="#c3c3c3"/><stop offset=".25" stop-color="#8f8f8f"/><stop offset=".37" stop-color="#636363"/><stop offset=".5" stop-color="#3f3f3f"/><stop offset=".62" stop-color="#242424"/><stop offset=".75" stop-color="#101010"/><stop offset=".87" stop-color="#040404"/><stop offset="1"/></linearGradient><linearGradient id="C" y1="132.44" y2="132.44" xlink:href="#B"/><linearGradient id="D" x1="178.59" y1="-1.406" x2="193.12" y2="20.226" xlink:href="#AN"><stop offset="0" stop-color="#4d4d4d"/><stop offset="1" stop-color="#1a1a1a"/></linearGradient><linearGradient id="E" x1="182.13" y1="155.59" x2="196.03" y2="155.59" xlink:href="#AN"><stop offset="0" stop-color="#7c7d7d"/><stop offset=".14" stop-color="#7f8080"/><stop offset=".26" stop-color="#898b8b"/><stop offset=".38" stop-color="#9a9c9d"/><stop offset=".49" stop-color="#b2b4b7"/><stop offset=".59" stop-color="#d0d3d7"/><stop offset=".7" stop-color="#f5f9ff"/><stop offset=".78" stop-color="#f3f6fc"/><stop offset=".83" stop-color="#eaeef4"/><stop offset=".87" stop-color="#dde0e5"/><stop offset=".91" stop-color="#c9ccd1"/><stop offset=".94" stop-color="#b0b2b6"/><stop offset=".97" stop-color="#919295"/><stop offset="1" stop-color="#737375"/></linearGradient><linearGradient id="F" y1="60.82" y2="60.82" xlink:href="#E"/><linearGradient id="G" x1="5.22" y1="20.25" x2="19.99" y2="-2.01" xlink:href="#D"/><linearGradient id="H" x1="16.58" y1="103.18" x2="2.66" y2="103.18" xlink:href="#E"/><linearGradient id="I" x1="61.93" y1="8.01" x2="61.93" y2="1.67" xlink:href="#AN"><stop offset="0" stop-color="#bfc1c7" stop-opacity=".7"/><stop offset=".28" stop-color="#c0c2c8" stop-opacity=".7"/><stop offset=".45" stop-color="#c5c7cc" stop-opacity=".73"/><stop offset=".6" stop-color="#ccced3" stop-opacity=".77"/><stop offset=".73" stop-color="#d7d9dd" stop-opacity=".82"/><stop offset=".85" stop-color="#e5e6ea" stop-opacity=".9"/><stop offset=".97" stop-color="#f6f7fa" stop-opacity=".97"/><stop offset="1" stop-color="#fbfcff"/></linearGradient><linearGradient id="J" x1="147.42" x2="147.42" xlink:href="#I"/><linearGradient id="K" x1="178.6" y1="389.92" x2="193.13" y2="380.16" xlink:href="#D"/><linearGradient id="L" x1="182.23" y1="293.02" x2="195.95" y2="293.02" xlink:href="#E"/><linearGradient id="M" x1="181.8" y1="197.21" x2="195.7" y2="197.21" xlink:href="#E"/><linearGradient id="N" x1="181.9" y1="197.21" x2="195.62" y2="197.21" xlink:href="#E"/><linearGradient id="O" x1="19.59" y1="395.628" x2="5.78" y2="375.032" xlink:href="#D"/><linearGradient id="P" x1="16.48" y1="293.25" x2="2.63" y2="293.25" xlink:href="#E"/><linearGradient id="Q" x1="99.34" y1="388.42" x2="99.34" y2="394.77" xlink:href="#I"/><linearGradient id="R" x1="5.47" y1="198.08" x2="193.23" y2="198.08" xlink:href="#AN"><stop offset="0" stop-color="#2e2e2e"/><stop offset=".07"/><stop offset=".18" stop-color="#363636"/><stop offset=".8" stop-color="#363636"/><stop offset=".94"/><stop offset="1" stop-color="#2e2e2e"/></linearGradient><linearGradient id="S" y1="58.74" y2="58.74" xlink:href="#R"/><linearGradient id="T" x1="177.47" y1="250.47" x2="192.04" y2="250.47" xlink:href="#AN"><stop offset="0" stop-color="#6b6c70" stop-opacity=".7"/><stop offset=".39" stop-color="#6d6e71" stop-opacity=".7"/><stop offset=".55" stop-color="#727377" stop-opacity=".72"/><stop offset=".66" stop-color="#7b7c80" stop-opacity=".75"/><stop offset=".76" stop-color="#88898d" stop-opacity=".8"/><stop offset=".84" stop-color="#9a9b9e" stop-opacity=".84"/><stop offset=".92" stop-color="#afb0b2" stop-opacity=".9"/><stop offset=".98" stop-color="#c7c8ca" stop-opacity=".98"/><stop offset="1" stop-color="#cecfd1"/></linearGradient><linearGradient id="U" y1="60.53" y2="60.53" xlink:href="#T"/><linearGradient id="V" x1="21.73" y1="8.43" x2="7.16" y2="8.43" xlink:href="#T"/><linearGradient id="W" x1="21.73" y1="198.37" x2="7.16" y2="198.37" xlink:href="#T"/><linearGradient id="X" x1="20.16" y1="8.29" x2="177.94" y2="8.29" xlink:href="#AN"><stop offset="0" stop-opacity="0"/><stop offset=".01" stop-color="#1f1f1f" stop-opacity=".12"/><stop offset=".03" stop-color="#535353" stop-opacity=".33"/><stop offset=".06" stop-color="#818181" stop-opacity=".5"/><stop offset=".08" stop-color="#a8a8a8" stop-opacity=".66"/><stop offset=".11" stop-color="#c8c8c8" stop-opacity=".78"/><stop offset=".13" stop-color="#e0e0e0" stop-opacity=".88"/><stop offset=".16" stop-color="#f1f1f1" stop-opacity=".95"/><stop offset=".19" stop-color="#fcfcfc" stop-opacity="1"/><stop offset=".22" stop-color="#fff"/><stop offset=".76" stop-color="#fff"/><stop offset=".84" stop-color="#fdfdfd" stop-opacity="1"/><stop offset=".87" stop-color="#f6f6f6" stop-opacity=".96"/><stop offset=".9" stop-color="#eaeaea" stop-opacity=".92"/><stop offset=".92" stop-color="#d8d8d8" stop-opacity=".85"/><stop offset=".93" stop-color="#c1c1c1" stop-opacity=".76"/><stop offset=".95" stop-color="#a5a5a5" stop-opacity=".65"/><stop offset=".96" stop-color="#838383" stop-opacity=".52"/><stop offset=".98" stop-color="#5c5c5c" stop-opacity=".36"/><stop offset=".99" stop-color="#323232" stop-opacity=".2"/><stop offset="1" stop-color="#020202" stop-opacity=".01"/><stop offset="1" stop-opacity="0"/></linearGradient><linearGradient id="Y" x1="19.83" y1="7.8" x2="115.54" y2="7.8" xlink:href="#X"/><linearGradient id="Z" y1="8.43" y2="8.43" xlink:href="#X"/><linearGradient id="a" y1="8.66" y2="8.66" xlink:href="#T"/><linearGradient id="b" y1="8.66" y2="8.66" xlink:href="#X"/><linearGradient id="c" x1="21.4" y1="7.88" x2="6.83" y2="7.88" xlink:href="#T"/><linearGradient id="d" y1="7.88" y2="7.88" xlink:href="#X" x1="19.83" x2="177.61"/><linearGradient id="e" y1="387.34" y2="387.34" xlink:href="#X"/><linearGradient id="f" x1="21.4" y1="385.93" x2="6.83" y2="385.93" xlink:href="#T"/><linearGradient id="g" y1="385.93" y2="385.93" xlink:href="#X" x1="19.83" x2="177.61"/><linearGradient id="h" x1="4.48" y1="39.1" x2="1.32" y2="39.1" xlink:href="#AN"><stop offset="0" stop-color="gray"/><stop offset=".2" stop-color="#9b9b9b" stop-opacity=".96"/><stop offset=".46" stop-color="#b6b6b6" stop-opacity=".93"/><stop offset=".73" stop-color="#c7c7c7" stop-opacity=".9"/><stop offset="1" stop-color="#ccc" stop-opacity=".9"/></linearGradient><linearGradient id="i" y1="355.01" y2="355.01" xlink:href="#h"/><linearGradient id="j" x1="16.26" y1="39.1" x2="2.34" y2="39.1" xlink:href="#E"/><linearGradient id="k" x1="16.15" y1="355.01" x2="2.3" y2="355.01" xlink:href="#E"/><linearGradient id="l" x1="197.46" y1="124.96" x2="198.01" y2="124.96" xlink:href="#AN"><stop offset="0" stop-color="#4a4a4a"/><stop offset=".17" stop-color="#4e4e4e"/><stop offset=".33" stop-color="#595959"/><stop offset=".48" stop-color="#6d6d6d"/><stop offset=".64" stop-color="#888"/><stop offset=".79" stop-color="#ababab"/><stop offset=".94" stop-color="#d5d5d5"/><stop offset="1" stop-color="#e6e6e6"/></linearGradient><linearGradient id="m" y1="102.62" y2="102.62" xlink:href="#l"/><linearGradient id="n" x1="197.29" y1="91.42" x2="197.29" y2="137.46" xlink:href="#AN"><stop offset=".02"/><stop offset=".03" stop-color="#1c1c1c"/><stop offset=".05" stop-color="#5c5c5c"/><stop offset=".07" stop-color="#919191"/><stop offset=".09" stop-color="#bababa"/><stop offset=".11" stop-color="#d8d8d8"/><stop offset=".13" stop-color="#eaeaea"/><stop offset=".14" stop-color="#f0f0f0"/><stop offset=".87" stop-color="#f0f0f0"/><stop offset=".88" stop-color="#ebebeb"/><stop offset=".89" stop-color="#ddd"/><stop offset=".91" stop-color="#c5c5c5"/><stop offset=".93" stop-color="#a3a3a3"/><stop offset=".94" stop-color="#787878"/><stop offset=".96" stop-color="#444"/><stop offset=".98" stop-color="#070707"/><stop offset=".98"/></linearGradient><linearGradient id="o" x1="197.31" x2="197.31" xlink:href="#n"/><linearGradient id="p" x1="196.46" x2="196.46" xlink:href="#n"/><linearGradient id="q" x1=".95" y1="96.59" x2=".41" y2="96.59" xlink:href="#l"/><linearGradient id="r" x1="1.11" y1="81.84" x2="1.11" y2="111.12" xlink:href="#AN"><stop offset="0" stop-color="#121212"/><stop offset="0" stop-color="#1c1c1c"/><stop offset=".03" stop-color="#5c5c5c"/><stop offset=".05" stop-color="#919191"/><stop offset=".07" stop-color="#bababa"/><stop offset=".08" stop-color="#d8d8d8"/><stop offset=".1" stop-color="#eaeaea"/><stop offset=".11" stop-color="#f0f0f0"/><stop offset=".91" stop-color="#f0f0f0"/><stop offset=".92" stop-color="#ebebeb"/><stop offset=".93" stop-color="#ddd"/><stop offset=".95" stop-color="#c5c5c5"/><stop offset=".96" stop-color="#a3a3a3"/><stop offset=".98" stop-color="#787878"/><stop offset=".99" stop-color="#454545"/><stop offset="1" stop-color="#242424"/></linearGradient><linearGradient id="s" xlink:href="#B"/><linearGradient id="t" x1="1.98" x2="1.98" xlink:href="#r"/><linearGradient id="u" x1=".95" y1="132.61" x2=".41" y2="132.61" xlink:href="#l"/><linearGradient id="v" y1="117.86" y2="147.14" xlink:href="#r"/><linearGradient id="w" y1="132.49" y2="132.49" xlink:href="#B"/><linearGradient id="x" x1="1.98" y1="117.86" x2="1.98" y2="147.14" xlink:href="#r"/><linearGradient id="y" x1=".84" y1="53.18" x2=".84" y2="68.04" xlink:href="#r"/><linearGradient id="z" y1="61.59" y2="61.59" xlink:href="#A"/><linearGradient id="AA" x1="1.87" y1="54.18" x2="1.87" y2="69.04" xlink:href="#r"/><linearGradient id="AB" x1="97.96" y1="394.5" x2="97.96" y2="395.44" xlink:href="#AN"><stop offset="0" stop-color="#616369"/><stop offset=".11" stop-color="#515358"/><stop offset=".33" stop-color="#37383c"/><stop offset=".56" stop-color="#242527"/><stop offset=".78" stop-color="#191a1b"/><stop offset="1" stop-color="#151617"/></linearGradient><linearGradient id="AC" x1="98.04" x2="98.04" xlink:href="#AB"/><path id="AD" d="M177.9 5.42a27.57 27.57 0 0 1 3.92 2.24 20.9 20.9 0 0 1 9.76 7.22 29.28 29.28 0 0 0-7.08-8 9.78 9.78 0 0 0-6.6-1.46z"/><path id="AE" d="M15.84 5.78a9.93 9.93 0 0 0-2.31 1.08 29.28 29.28 0 0 0-7.08 8 20.9 20.9 0 0 1 9.76-7.22 27.57 27.57 0 0 1 3.92-2.24l-1-.06a9.65 9.65 0 0 0-3.29.44z"/><path id="AF" d="M181.82 386.78a26.58 26.58 0 0 1-3.92 2.23 9.76 9.76 0 0 0 6.6-1.43 29.28 29.28 0 0 0 7.08-8 20.91 20.91 0 0 1-9.76 7.2z"/><path id="AG" d="M193.4 197.18h2.24v.07h-2.24z"/><path id="AH" d="M19.17 389.07l1-.06a26.58 26.58 0 0 1-3.92-2.23 20.92 20.92 0 0 1-9.76-7.23 29.28 29.28 0 0 0 7.08 8 10.35 10.35 0 0 0 2.31 1.08 9.91 9.91 0 0 0 3.29.44z"/><path id="AI" d="M19.85 7.8h0l.45.9a8.23 8.23 0 0 0 1.11-1.63q-.8.35-1.56.72z"/><path id="AJ" d="M21.23 386.63a9.23 9.23 0 0 0-1-1.41l-.37.76 1.37.65z"/><path id="AK" d="M2.25 107.87V85.34a8 8 0 0 0-.54-3.43h0V111h.12c.3-.18.42-1.34.42-3.13z"/><path id="AL" d="M2.25 143.9v-22.53a8 8 0 0 0-.54-3.43h0V147l.12.05c.3-.2.42-1.37.42-3.16z"/><path id="AM" d="M2 68.23V55c0-.44-.05-.72-.27-.82h0V69h.1a1.2 1.2 0 0 0 .18-.77z"/><linearGradient id="AN" gradientUnits="userSpaceOnUse"/></defs><rect x="5.14" y="3.49" width="186.44" height="386.28" rx="28.23" fill="#fff" stroke="#000" stroke-miterlimit="10"/><g class="B"><path d="M6.04 29.18v335.44c0 13.9 11.26 25.15 25.15 25.15h136a24.77 24.77 0 0 0 24.82-24.72V112h-.4l.1 85-.2 165.28c0 14.33-6.8 21.44-14.36 24.66 2-4.15 10.85-7.74 10.85-24.55V112h-3.5v253.33c0 9.44-7.65 17.1-17.1 17.1h-137c-9.44 0-17.094-7.65-17.1-17.1V28.73c.006-9.44 7.66-17.1 17.1-17.1h79.28V7.6H31.5a31.46 31.46 0 0 0-10.81 2l-.42-.87c-3.08 3.68-9.73 8.3-9.73 22.9V362.4c0 14.48 6.54 19.15 9.65 22.82l.5-1a31.46 31.46 0 0 0 10.81 2h134.44a25.52 25.52 0 0 0 10.61-2.22l1.05 2.22a27.82 27.82 0 0 1-11.66 2.63H31.5a25.76 25.76 0 0 1-10.28-2.13c.06.1.12.2.17.32-7.56-3.22-14.36-10.33-14.36-24.66L6.83 197l.2-165.28c0-13.33 5.9-20.4 12.8-23.92h0c.5-.26 1-.5 1.55-.73h0A25.92 25.92 0 0 1 31.51 5h78.16v-.6H30.83c-13.7 0-24.8 11.1-24.8 24.8zm25.28 364.54a28.82 28.82 0 0 1-17.79-6.14 29.28 29.28 0 0 1-7.08-8 28.81 28.81 0 0 1-4.06-14.78v-8.6H1.34v9a29.26 29.26 0 0 0 29.27 29.27h55.43a11.32 11.32 0 0 1 1.55-.7z"/><path d="M2.4 197.72h2.28V364.8c.022 14.73 11.96 26.663 26.7 26.68h135.3c14.732-.01 26.673-11.948 26.7-26.68V112h-.5v253a25.66 25.66 0 0 1-25.66 25.66h-136c-14.36 0-26-11.64-26-26V29.34C5.2 15.087 16.737 3.523 31 3.5h78.68V3H31.32a26.67 26.67 0 0 0-11.19 2.42 27.57 27.57 0 0 0-3.92 2.24A26.68 26.68 0 0 0 4.67 29.64v167.08H2.4V40.3H1.34v12.4a1.39 1.39 0 0 1 .52 1.3v13.4c0 .28 0 1-.52 1.26V80.1a2.84 2.84 0 0 1 .74 2.13V109a1.85 1.85 0 0 1-.74 1.74v5.4a2.8 2.8 0 0 1 .74 2.12v26.8a1.82 1.82 0 0 1-.74 1.73v207H2.4zm194.03-60.6a1.74 1.74 0 0 1-.79-.7V364.8a28.8 28.8 0 0 1-4.06 14.75 29.28 29.28 0 0 1-7.08 8 28.75 28.75 0 0 1-17.83 6.17h-59a11.32 11.32 0 0 1 1.55.7h57.86a29.26 29.26 0 0 0 29.27-29.25V136.33zM19.17 389.07a9.86 9.86 0 0 1-3.33-.41 9.86 9.86 0 0 0 3.33.41zM2.4 29.64a28.81 28.81 0 0 1 4.06-14.76 29.28 29.28 0 0 1 7.08-8A28.77 28.77 0 0 1 31.32.72h78.35V0H30.6A29.28 29.28 0 0 0 1.34 29.29v8.63H2.4z"/><path d="M15.84 5.78a9.62 9.62 0 0 1 3.33-.42 9.62 9.62 0 0 0-3.33.42zM165.95 5a27.71 27.71 0 0 1 11.47 2.54 4.91 4.91 0 0 1-.28-.5c7.56 3.22 14.36 10.33 14.36 24.66l.1 80.28h.4v-82.4c0-13.907-11.273-25.18-25.18-25.18h-57.16V5zm.72-4.28a28.82 28.82 0 0 1 17.79 6.14 29.28 29.28 0 0 1 7.08 8 28.83 28.83 0 0 1 4.13 14.78v61a2 2 0 0 1 .79-1v.92V29.3A29.26 29.26 0 0 0 167.23 0h-57.56v.68zm15.15 6.94a27.57 27.57 0 0 0-3.92-2.24A26.7 26.7 0 0 0 166.67 3h-57v.53h57.15a26.08 26.08 0 0 1 26.08 26.08h0V112h.5V29.64a26.69 26.69 0 0 0-11.58-21.98z"/><path d="M177.55 7.77l-1 2.1a25.53 25.53 0 0 0-10.61-2.28h-56.27v4.05h57.72a17.09 17.09 0 0 1 17.09 17.09V112h3.5V31.6c0-15.85-7.84-19.95-10.44-23.84zM1.86 67.4V54a1.39 1.39 0 0 0-.52-1.29v.47c.22.1.27.38.27.82v13.23c0 .38 0 .63-.2.8h-.08v.6c.5-.22.52-.98.52-1.26z"/></g><path d="M2.2 68.4V55a1.39 1.39 0 0 0-.52-1.29v.47c.22.1.27.38.27.82v13.23c0 .38 0 .63-.2.8h-.08v.6c.5-.22.52-.98.52-1.26z" transform="translate(-.33 -1)" fill="url(#A)"/><path d="M2.08 109V82.22a2.84 2.84 0 0 0-.74-2.13v.84c.58.87.54 2.72.54 3.43v22.53c0 1.8-.1 3-.46 3.2H1.3v.72a1.84 1.84 0 0 0 .78-1.81z" class="B"/><path d="M2.4 110V83.22a2.84 2.84 0 0 0-.74-2.13v.84c.58.87.54 2.72.54 3.43v22.53c0 1.8-.1 3-.46 3.2h-.12v.72a1.84 1.84 0 0 0 .78-1.81z" transform="translate(-.33 -1)" fill="url(#B)"/><path d="M2.08 145.05v-26.8a2.8 2.8 0 0 0-.74-2.12v.86c.58.87.54 2.72.54 3.43V143c0 1.8-.1 3-.46 3.2l-.08-.2v.74a1.8 1.8 0 0 0 .74-1.69z" class="B"/><path d="M2.4 146.05v-26.8a2.8 2.8 0 0 0-.74-2.12v.86c.58.87.54 2.72.54 3.43V144c0 1.8-.1 3-.46 3.2l-.08-.2v.74a1.8 1.8 0 0 0 .74-1.69z" transform="translate(-.33 -1)" fill="url(#C)"/><use xlink:href="#AD" class="B"/><use xlink:href="#AD" x="0.33" y="1" transform="translate(-.33 -1)" fill="url(#D)"/><path d="M195.44 135.4V112h-2v85.18h2.23v-60.76a1.76 1.76 0 0 1-.23-1.03z" class="B"/><path d="M195.77 136.4V113h-2v85.18H196v-60.76a1.76 1.76 0 0 1-.23-1.03z" transform="translate(-.33 -1)" fill="url(#E)"/><path d="M195.44 91.76a3 3 0 0 1 .2-1.15v-61a28.81 28.81 0 0 0-4.06-14.76 20.9 20.9 0 0 0-9.76-7.22 26.69 26.69 0 0 1 11.58 22V112h2z" class="B"/><path d="M195.77,92.76a3,3,0,0,1,.2-1.15v-61a28.81,28.81,0,0,0-4.06-14.76,20.9,20.9,0,0,0-9.76-7.22,26.69,26.69,0,0,1,11.58,22V113h2Z" transform="translate(-.33 -1)" fill="url(#F)"/><use xlink:href="#AE" class="B"/><use xlink:href="#AE" x="0.33" y="1" transform="translate(-.33 -1)" fill="url(#G)"/><path d="M6.45 14.88a28.81 28.81 0 0 0-4.06 14.76v8.28h2.08v2.37H2.4v156.43h2.28V29.64a26.69 26.69 0 0 1 11.58-22 21 21 0 0 0-9.8 7.24z" class="B"/><path d="M6.78 15.88a28.81 28.81 0 0 0-4.06 14.76v8.28H4.8v2.37H2.72v156.43H5V30.64a26.69 26.69 0 0 1 11.58-22 21 21 0 0 0-9.8 7.24z" transform="translate(-.33 -1)" fill="url(#H)"/><path d="M99 .72h-67.7a28.82 28.82 0 0 0-17.79 6.14 9.93 9.93 0 0 1 2.31-1.08 9.62 9.62 0 0 1 3.33-.42l1 .06A26.65 26.65 0 0 1 31.32 3h78.35V.72z" class="B"/><path d="M99.34,1.72H31.65A28.82,28.82,0,0,0,13.86,7.86a9.93,9.93,0,0,1,2.31-1.08,9.62,9.62,0,0,1,3.33-.42l1,.06A26.65,26.65,0,0,1,31.65,4H110V1.72Z" transform="translate(-.33 -1)" fill="url(#I)"/><path d="M177.9 5.42a9.77 9.77 0 0 1 6.6 1.44A28.83 28.83 0 0 0 166.67.72h-57V3h57a26.7 26.7 0 0 1 11.23 2.42z" class="B"/><path d="M178.23 6.42a9.77 9.77 0 0 1 6.6 1.44A28.83 28.83 0 0 0 167 1.72h-57V4h57a26.7 26.7 0 0 1 11.23 2.42z" transform="translate(-.33 -1)" fill="url(#J)"/><path d="M195.84 133.2V112h-.17v24.42a1.74 1.74 0 0 0 .79.7v-.8l-.14.06c-.37-.25-.48-1.4-.48-3.2z"/><path d="M195.84 112V94a8 8 0 0 1 .54-3.44v-.92a2 2 0 0 0-.79 1V112z"/><path d="M195.44 112v23.4a1.82 1.82 0 0 0 .2 1V112z"/><path d="M195.44 112h.2V90.6a3 3 0 0 0-.2 1.15z"/><use xlink:href="#AF" class="B"/><use xlink:href="#AF" x="0.33" y="1" transform="translate(-.33 -1)" fill="url(#K)"/><path d="M193.4 364.8a26.69 26.69 0 0 1-11.58 22 20.92 20.92 0 0 0 9.76-7.23 28.78 28.78 0 0 0 4.09-14.77V197.25h-2.24z" class="B"/><path d="M193.73,365.8a26.69,26.69,0,0,1-11.58,22,20.92,20.92,0,0,0,9.76-7.23A28.78,28.78,0,0,0,196,365.8V198.25h-2.24Z" transform="translate(-.33 -1)" fill="url(#L)"/><use xlink:href="#AG" class="B"/><use xlink:href="#AG" fill="url(#M)"/><use xlink:href="#AG" fill="url(#N)"/><use xlink:href="#AH" class="B"/><use xlink:href="#AH" x="0.33" y="1" transform="translate(-.33 -1)" fill="url(#O)"/><path d="M16.2 386.78A26.68 26.68 0 0 1 4.67 364.8V197.72H2.4v156.1h2.08v2.37H2.4v8.6a28.8 28.8 0 0 0 4.06 14.75 20.92 20.92 0 0 0 9.76 7.23z" class="B"/><path d="M16.54 387.78A26.68 26.68 0 0 1 5 365.8V198.72H2.72v156.1H4.8v2.37H2.72v8.6a28.8 28.8 0 0 0 4.06 14.75 20.92 20.92 0 0 0 9.76 7.23z" transform="translate(-.33 -1)" fill="url(#P)"/><path d="M177.9 389a26.57 26.57 0 0 1-11.23 2.48H31.32A26.51 26.51 0 0 1 20.13 389l-1 .06a9.86 9.86 0 0 1-3.33-.41 10.35 10.35 0 0 1-2.31-1.08 28.82 28.82 0 0 0 17.79 6.14h56.3a7.4 7.4 0 0 1 2.72-.45h14.72a7.4 7.4 0 0 1 2.72.45h59a28.82 28.82 0 0 0 17.79-6.14 9.76 9.76 0 0 1-6.64 1.43z" class="B"/><path d="M178.23 390a26.57 26.57 0 0 1-11.23 2.48H31.65A26.51 26.51 0 0 1 20.46 390l-1 .06a9.86 9.86 0 0 1-3.33-.41 10.35 10.35 0 0 1-2.31-1.08 28.82 28.82 0 0 0 17.79 6.14h56.3a7.4 7.4 0 0 1 2.72-.45h14.72a7.4 7.4 0 0 1 2.72.45h59a28.82 28.82 0 0 0 17.79-6.14 9.76 9.76 0 0 1-6.64 1.43z" transform="translate(-.33 -1)" fill="url(#Q)"/><path d="M192 365c0 13.68-11.1 24.77-24.77 24.77h-136a25.15 25.15 0 0 1-25.2-25.1V29.18A24.79 24.79 0 0 1 30.83 4.39h78.84v-.9H31C16.713 3.5 5.14 15.063 5.14 29.34v335.28a26 26 0 0 0 26 26.05h136.1a25.66 25.66 0 0 0 25.71-25.61V112h-.9z" class="B"/><path d="M192.34,366a24.77,24.77,0,0,1-24.77,24.77h-136a25.15,25.15,0,0,1-25.2-25.1V30.18A24.79,24.79,0,0,1,31.16,5.39H110v-.9H31.32A25.85,25.85,0,0,0,5.47,30.34V365.62a26,26,0,0,0,26,26.05h136.1a25.66,25.66,0,0,0,25.71-25.61V113h-.89Z" transform="translate(-.33 -1)" fill="url(#R)"/><path d="M166.82 3.5h-57.15v.9h57.15a25.18 25.18 0 0 1 25.19 25.17h0V112h.9V29.57c0-14.404-11.676-26.08-26.08-26.08z" class="B"/><path d="M167.15,4.49H110v.9h57.15a25.18,25.18,0,0,1,25.19,25.17h0V113h.89V30.57A26.08,26.08,0,0,0,167.15,4.49Z" transform="translate(-.33 -1)" fill="url(#S)"/><path d="M188 362.4c0 16.8-8.83 20.4-10.85 24.55 7.56-3.22 14.36-10.33 14.36-24.66l.17-165.3-.1-85h-3.6z" class="B"/><path d="M188.32 363.4c0 16.8-8.83 20.4-10.85 24.55 7.56-3.22 14.36-10.33 14.36-24.66L192 198l-.1-85h-3.6z" transform="translate(-.33 -1)" fill="url(#T)"/><path d="M177.14 7.06a4.91 4.91 0 0 0 .28.5l.2.1-.06.12c2.6 3.9 10.44 8 10.44 23.84V112h3.6l-.1-80.28c0-14.33-6.83-21.44-14.36-24.66z" class="B"/><path d="M177.47 8.06a4.91 4.91 0 0 0 .28.5l.2.1-.06.12c2.6 3.9 10.44 8 10.44 23.84V113h3.6l-.1-80.28c0-14.33-6.83-21.44-14.36-24.66z" transform="translate(-.33 -1)" fill="url(#U)"/><path d="M21.4 7.06l-1.55.73 1.54-.7z" class="B"/><path d="M21.73 8.06l-1.55.73 1.54-.7z" transform="translate(-.33 -1)" fill="url(#V)"/><path d="M7.04 31.72L6.83 197l.2 165.28c0 14.33 6.8 21.44 14.36 24.66-.05-.1-.1-.2-.17-.32a25.28 25.28 0 0 1-1.4-.65l.37-.76c-3.1-3.67-9.65-8.34-9.65-22.82V31.6c0-14.6 6.65-19.22 9.73-22.9l-.45-.9c-6.9 3.5-12.8 10.6-12.8 23.92z" class="B"/><path d="M7.37 32.72L7.16 198l.2 165.28c0 14.33 6.8 21.44 14.36 24.66-.05-.1-.1-.2-.17-.32a25.28 25.28 0 0 1-1.4-.65l.37-.76c-3.1-3.67-9.65-8.34-9.65-22.82V32.6c0-14.6 6.65-19.22 9.73-22.9l-.45-.9c-6.9 3.5-12.8 10.6-12.8 23.92z" transform="translate(-.33 -1)" fill="url(#W)"/><path d="M98.73 5H31.5a25.88 25.88 0 0 0-10.12 2.08 8.23 8.23 0 0 1-1.11 1.63l.42.87a31.46 31.46 0 0 1 10.81-2h78.16V5z" class="B"/><path d="M99.06,6H31.84A25.88,25.88,0,0,0,21.72,8.08a8.23,8.23,0,0,1-1.11,1.63l.42.87a31.46,31.46,0,0,1,10.81-2H110V6Z" transform="translate(-.33 -1)" fill="url(#X)" class="C"/><path d="M19.83 7.8h0 .02-.02z" class="B"/><path fill="url(#Y)" d="M19.83 7.8h0 .02-.02z" class="C"/><path d="M176.56 9.87l1-2.1-.13-.2A27.59 27.59 0 0 0 165.95 5h-56.28v2.6h56.28a25.53 25.53 0 0 1 10.61 2.28z" class="B"/><path d="M176.9 10.87l1-2.1-.13-.2A27.59 27.59 0 0 0 166.28 6H110v2.6h56.28a25.53 25.53 0 0 1 10.61 2.28z" transform="translate(-.33 -1)" fill="url(#Z)" class="C"/><path d="M177.6 7.65l-.2-.1.13.2z" class="B"/><g transform="translate(-.33 -1)"><path d="M177.94 8.65l-.2-.1.13.2z" fill="url(#a)"/><path d="M177.94 8.65l-.2-.1.13.2z" fill="url(#b)" class="C"/></g><use xlink:href="#AI" class="B"/><g transform="translate(-.33 -1)"><use xlink:href="#AI" x="0.33" y="1" fill="url(#c)"/><use xlink:href="#AI" x="0.33" y="1" fill="url(#d)" class="C"/></g><path d="M31.5 388.76h134.44a27.82 27.82 0 0 0 11.66-2.63l-1.05-2.22a25.52 25.52 0 0 1-10.61 2.27H31.5a31.46 31.46 0 0 1-10.81-2l-.5 1a9.23 9.23 0 0 1 1 1.41 25.77 25.77 0 0 0 10.31 2.17z" class="B"/><path d="M31.84 389.76h134.44a27.82 27.82 0 0 0 11.66-2.63l-1.05-2.22a25.52 25.52 0 0 1-10.61 2.27H31.84a31.46 31.46 0 0 1-10.81-2l-.5 1a9.23 9.23 0 0 1 1 1.41 25.77 25.77 0 0 0 10.31 2.17z" transform="translate(-.33 -1)" fill="url(#e)" class="C"/><use xlink:href="#AJ" class="B"/><g transform="translate(-.33 -1)"><use xlink:href="#AJ" x="0.33" y="1" fill="url(#f)"/><use xlink:href="#AJ" x="0.33" y="1" fill="url(#g)" class="C"/></g><path d="M1.32 37.92h.02v2.37h-.02z" class="D"/><path d="M1.32 353.82h.02v2.37h-.02z" class="E"/><path d="M1.34 37.92H2.4v2.37H1.34z" class="B"/><path d="M1.34 37.92H2.4v2.37H1.34z" class="D"/><path d="M1.34 353.82H2.4v2.37H1.34z" class="B"/><path d="M1.34 353.82H2.4v2.37H1.34z" class="E"/><path d="M2.4 37.92h2.08v2.37H2.4z" class="B"/><path fill="url(#j)" d="M2.4 37.92h2.08v2.37H2.4z"/><path d="M2.4 37.92h2.08v2.37H2.4z" class="D"/><path d="M2.4 353.82h2.08v2.37H2.4z" class="B"/><path fill="url(#k)" d="M2.4 353.82h2.08v2.37H2.4z"/><path d="M2.4 353.82h2.08v2.37H2.4z" class="E"/><path d="M197.46 135.2c0 .75 0 1.6.36 1.7.16-.14.18-.56.18-1V113h-.54z" transform="translate(-.33 -1)" fill="url(#l)"/><path d="M197.53 91.25c-.4.4-.4 1.62-.4 3.9V112h.54V92.83a4.43 4.43 0 0 0-.14-1.58z" fill="#e23333"/><g transform="translate(-.33 -1)"><path d="M197.86 92.25c-.4.4-.4 1.62-.4 3.9V113h.54V93.83a4.43 4.43 0 0 0-.14-1.58z" fill="url(#m)"/><path d="M197.46 135.2V113h-.7v24.33l1.06-.4c-.38-.1-.36-.92-.36-1.7z" fill="url(#n)"/></g><path d="M197.13 112V95.15c0-2.28 0-3.5.4-3.9l-1.1-.7V112z" fill="#e23333"/><path d="M197.46 113V96.15c0-2.28 0-3.5.4-3.9l-1.1-.7V113z" transform="translate(-.33 -1)" fill="url(#o)"/><path d="M195.84 133.2c0 1.78.1 2.95.45 3.2l.14-.06V112h-.6z"/><path d="M196.17 134.2c0 1.78.1 2.95.45 3.2l.14-.06V113h-.6z" transform="translate(-.33 -1)" fill="url(#p)"/><path d="M196.38 90.53c-.58.88-.54 2.73-.54 3.44v18h.6v-21.4z"/><g transform="translate(-.33 -1)"><path d="M196.7 91.53c-.58.88-.54 2.73-.54 3.44v18h.6v-21.4z" fill="url(#p)"/><path d="M1 108.9V86.52c0-2.28 0-3.5-.4-3.9a4.23 4.23 0 0 0-.18 1.58v25.36c0 .48 0 .9.18 1 .4-.07.4-.92.4-1.67z" fill="url(#q)"/><path d="M.56 82.62c.4.4.4 1.62.4 3.9v22.37c0 .75 0 1.6-.36 1.7l1.07.42v-29.1z" fill="url(#r)"/></g><path d="M1.92 106.87V84.34a8 8 0 0 0-.54-3.43h0V110h.12c.3-.18.42-1.34.42-3.13z" class="B"/><g transform="translate(-.33 -1)"><use xlink:href="#AK" fill="url(#s)"/><use xlink:href="#AK" fill="url(#t)"/><path d="M1 144.9v-22.37c0-2.28 0-3.5-.4-3.9a4 4 0 0 0-.14 1.58v25.36c0 .48 0 .9.18 1 .36-.07.36-.92.36-1.67z" fill="url(#u)"/><path d="M.56 118.64c.4.4.4 1.62.4 3.9v22.37c0 .75 0 1.6-.36 1.7l1.07.42V118z" fill="url(#v)"/></g><path d="M1.92 142.9v-22.53a8 8 0 0 0-.54-3.43h0V146l.12.05c.3-.2.42-1.37.42-3.16z" class="B"/><g transform="translate(-.33 -1)"><use xlink:href="#AL" fill="url(#w)"/><use xlink:href="#AL" fill="url(#x)"/></g><path fill="#555658" d="M0 53.53v14.13l.35.35V53.18l-.35.35z"/><path fill="url(#y)" d="M.35 53.18V68l.02.03h.97V53.18h-1z"/><path d="M1.67 67.23V54c0-.44-.05-.72-.27-.82h0V68h.1a1.2 1.2 0 0 0 .18-.77z" class="B"/><g transform="translate(-.33 -1)"><use xlink:href="#AM" fill="url(#z)"/><use xlink:href="#AM" fill="url(#AA)"/></g><path d="M87.6 393.72a11.32 11.32 0 0 0-1.55.7h.72a10.1 10.1 0 0 1 2-.7zm19.07 0a10.1 10.1 0 0 1 2 .7h.72a11.32 11.32 0 0 0-1.55-.7z"/><path d="M98.2 393.27H90.3a7.4 7.4 0 0 0-2.72.45h1.13a7.92 7.92 0 0 1 2-.22h13.82a7.92 7.92 0 0 1 2 .22h1.13a7.4 7.4 0 0 0-2.72-.45z"/><path d="M99 393.72h-10.3a10.1 10.1 0 0 0-2 .7h21.82a10.1 10.1 0 0 0-2-.7z"/><path d="M99.34,394.72H89.05a10.1,10.1,0,0,0-2,.7h21.82a10.1,10.1,0,0,0-2-.7Z" transform="translate(-.33 -1)" fill="url(#AB)"/><path d="M98.15 393.5h-7.4a7.92 7.92 0 0 0-2 .22h17.9a7.92 7.92 0 0 0-2-.22z"/><path d="M98.48 394.5h-7.4a7.92 7.92 0 0 0-2 .22H107a7.92 7.92 0 0 0-2-.22z" transform="translate(-.33 -1)" fill="url(#AC)"/><g fill="#fff"><path d="M61.16 17.2h48.5v-2.3l-58.45.1c0 2.68 2.45 2.2 9.94 2.2z"/><path d="M137.2 17.2c6.7 0 9.6.82 9.6-2.38l-37.15.08v2.3z"/></g></svg>