<svg xmlns="http://www.w3.org/2000/svg" xmlns:xlink="http://www.w3.org/1999/xlink" viewBox="0 0 920 460" xmlns:v="https://vecta.io/nano"><defs><linearGradient id="A" x1="463.29" y1="435.63" x2="463.29" y2="2.56" xlink:href="#i"><stop offset="0" stop-color="#9a9a9a"/><stop offset=".09" stop-color="#a2a2a2"/><stop offset=".24" stop-color="#b8b8b8"/><stop offset=".42" stop-color="#dbdbdb"/><stop offset=".45" stop-color="#e2e2e2"/><stop offset="1" stop-color="#c5c5c5"/></linearGradient><linearGradient id="B" x1="463.28" y1="22.33" x2="463.28" y2="-.27" xlink:href="#i"><stop offset="0" stop-color="#3e3e3e"/><stop offset=".28" stop-color="#414141"/><stop offset=".45" stop-color="#494949"/><stop offset=".58" stop-color="#575757"/><stop offset=".71" stop-color="#6b6b6b"/><stop offset=".82" stop-color="#868686"/><stop offset=".92" stop-color="#a5a5a5"/><stop offset="1" stop-color="#c5c5c5"/></linearGradient><linearGradient id="C" x1="134.29" x2="134.29" xlink:href="#A"/><linearGradient id="D" x1="134.29" x2="134.29" xlink:href="#B"/><linearGradient id="E" x1="53.97" y1="449.22" x2="460" y2="449.22" xlink:href="#i"><stop offset="0" stop-color="#929292"/><stop offset=".01" stop-color="#c1c1c1"/><stop offset=".03" stop-color="#b2b2b2"/><stop offset=".05" stop-color="#9c9c9c"/><stop offset=".07" stop-color="#a4a4a4"/><stop offset=".09" stop-color="#b0b0b0"/><stop offset="1" stop-color="#cfcfcf"/></linearGradient><linearGradient id="F" x1="54" y1="436.99" x2="866" y2="436.99" xlink:href="#i"><stop offset=".01" stop-color="#f7f7f7"/><stop offset=".06" stop-color="#d0d0d0"/><stop offset=".5" stop-color="#f7f7f7"/><stop offset=".87" stop-color="#d0d0d0"/><stop offset=".87" stop-color="#d2d2d2"/><stop offset=".95" stop-color="#e8e8e8"/><stop offset="1" stop-color="#f0f0f0"/></linearGradient><linearGradient id="G" x1="460" y1="449.22" x2="866.03" y2="449.22" xlink:href="#i"><stop offset="0" stop-color="#cfcfcf"/><stop offset=".91" stop-color="#b0b0b0"/><stop offset=".93" stop-color="#a4a4a4"/><stop offset=".95" stop-color="#9c9c9c"/><stop offset=".97" stop-color="#b2b2b2"/><stop offset=".99" stop-color="#c1c1c1"/><stop offset="1" stop-color="#929292"/></linearGradient><linearGradient id="H" x1="54" y1="443.08" y2="443.08" xlink:href="#E"/><linearGradient id="I" x1="54" y1="443.08" x2="460" y2="443.08" xlink:href="#i"><stop offset="0" stop-color="#666"/><stop offset=".01" stop-color="#d5d5d5"/><stop offset=".02" stop-color="#bebebe"/><stop offset=".04" stop-color="#878787"/><stop offset=".05" stop-color="#717171"/><stop offset=".06" stop-color="#797979"/><stop offset=".07" stop-color="#8f8f8f"/><stop offset=".09" stop-color="#b3b3b3"/><stop offset=".09" stop-color="#bcbcbc"/><stop offset="1" stop-color="#f0f0f0"/></linearGradient><linearGradient id="J" y1="443.08" x2="866" y2="443.08" xlink:href="#G"/><linearGradient id="K" x1="460" y1="443.08" x2="866" y2="443.08" xlink:href="#i"><stop offset="0" stop-color="#f0f0f0"/><stop offset=".91" stop-color="#bcbcbc"/><stop offset=".91" stop-color="#b3b3b3"/><stop offset=".93" stop-color="#8f8f8f"/><stop offset=".94" stop-color="#797979"/><stop offset=".95" stop-color="#717171"/><stop offset=".96" stop-color="#878787"/><stop offset=".98" stop-color="#bebebe"/><stop offset=".99" stop-color="#d5d5d5"/><stop offset="1" stop-color="#666"/></linearGradient><linearGradient id="L" y1="441.7" y2="441.7" xlink:href="#G"/><linearGradient id="M" y1="441.7" x2="866.03" y2="441.7" xlink:href="#K"/><linearGradient id="N" x1="53.97" x2="866.03" xlink:href="#F"/><linearGradient id="O" x1="402.21" y1="436.99" x2="517.76" y2="436.99" xlink:href="#i"><stop offset="0" stop-color="#9f9f9f"/><stop offset=".04" stop-color="#adadad"/><stop offset=".51" stop-color="#e5e5e5"/><stop offset=".96" stop-color="#adadad"/><stop offset="1" stop-color="#9f9f9f"/></linearGradient><linearGradient id="P" y1="441.7" y2="441.7" xlink:href="#E"/><linearGradient id="Q" x1="53.97" y1="441.7" y2="441.7" xlink:href="#I"/><linearGradient id="R" x1="402.24" y1="441.7" x2="517.83" y2="441.7" xlink:href="#O"/><linearGradient id="S" x1="402.24" y1="441.7" x2="517.82" y2="441.7" xlink:href="#O"/><linearGradient id="T" x1="401.75" y1="436.99" x2="518.25" y2="436.99" xlink:href="#i"><stop offset="0" stop-color="#f6f6f6"/><stop offset=".52" stop-color="#f7f7f7"/><stop offset="1" stop-color="#f6f6f6"/></linearGradient><linearGradient id="U" y1="442.05" y2="442.05" xlink:href="#E"/><linearGradient id="V" x1="53.97" y1="442.05" y2="442.05" xlink:href="#I"/><linearGradient id="W" y1="442.05" y2="442.05" xlink:href="#T"/><linearGradient id="X" y1="442.05" y2="442.05" xlink:href="#G"/><linearGradient id="Y" y1="442.05" x2="866.03" y2="442.05" xlink:href="#K"/><linearGradient id="Z" y1="441.7" x2="517.79" y2="441.7" xlink:href="#O"/><linearGradient id="a" y1="441.7" y2="441.7" xlink:href="#T"/><linearGradient id="b" x1="460" y1="460.42" x2="460" y2="449.59" xlink:href="#i"><stop offset="0" stop-color="#565656"/><stop offset=".74" stop-color="#b9b9b9"/><stop offset=".85" stop-color="#b6b6b6"/><stop offset=".94" stop-color="#acacac"/><stop offset="1" stop-color="#9f9f9f"/></linearGradient><path id="c" d="M134.34 20.3a19 19 0 0 0-.1 2h0a19 19 0 0 1 .1-2z"/><path id="d" d="M460,446.8H411.16a9.42,9.42,0,0,1-9.41-9.4v-.1H54v11.56H460Z"/><path id="e" d="M518.25,437.4a9.4,9.4,0,0,1-9.4,9.4H460v2.06H866V437.3H518.25Z"/><path id="f" d="M411.16 446.8H460v-.7h-48.4a9.41 9.41 0 0 1-9.37-8.8h-.5v.1a9.42 9.42 0 0 0 9.41 9.4z"/><path id="g" d="M508.38 446.1H460v.7h48.84a9.4 9.4 0 0 0 9.41-9.39h0v-.1h-.5a9.38 9.38 0 0 1-9.38 8.79z"/><path id="h" d="M402.24 437.3h0a9.41 9.41 0 0 0 9.37 8.8h0a9.41 9.41 0 0 1-9.37-8.8z"/><linearGradient id="i" gradientUnits="userSpaceOnUse"/></defs><path d="M137.1 424.06h0V19.5a10.79 10.79 0 0 1 .08-1.61v-.1a6.44 6.44 0 0 1 .1-.87c0-.3.1-.56.15-.83a8.15 8.15 0 0 1 .2-.82l.23-.8a16.82 16.82 0 0 1 3.41-6l.56-.6.28-.3a18.09 18.09 0 0 1 2.37-1.92l.22-.16.3-.2 1.07-.62 1.1-.55.77-.32c.28-.1.56-.2.84-.28l.47-.16 1-.26a3.61 3.61 0 0 0 .61-.15c.2 0 .64-.1 1-.14l.7-.1c.23-.02.72 0 1.08-.06h618.77a9.38 9.38 0 0 1 1.43.07h.4a14.09 14.09 0 0 1 1.45.27h.3l1.38.35h.14l1.5.55V4a13 13 0 0 1 1.46.69l1.07.62.34.24 1 .7.63.52.9.83.3.3.56.6a16.76 16.76 0 0 1 4.18 11.06v416.08h2.9V21.1a19.94 19.94 0 0 0-20-18.53H154.3a20 20 0 0 0-19.95 17.75 19 19 0 0 0-.1 2h0v413.3h2.87z" fill="url(#A)"/><path d="M154.3 2.55h618.07a20 20 0 0 1 20 18.54v-1.6a19.92 19.92 0 0 0-20-19.77H154.25A19.91 19.91 0 0 0 134.2 19.5h0v2.83a19 19 0 0 1 .1-2 20 20 0 0 1 20-17.78z" fill="url(#B)"/><use xlink:href="#c" fill="url(#C)"/><use xlink:href="#c" fill="url(#D)"/><path d="M789.48 424.06H137.1v11.57h652.37v-11.57z"/><path fill="#fff" stroke="#000" stroke-miterlimit="10" d="M150.9 17.76h621.42v402.28H150.9z"/><path d="M789.48 19.6a17 17 0 0 0-7.56-14.1h0A17.49 17.49 0 0 0 779 4h-.07l-1.5-.55h-.14l-1.38-.35h-.25a14.09 14.09 0 0 0-1.45-.22h-.4c-.47 0-.94-.07-1.43-.07H153.65a6.52 6.52 0 0 0-1.08.06l-.7.1c-.23 0-.65.08-1 .14a4.89 4.89 0 0 0-.61.15l-1 .26-.47.16a16.87 16.87 0 0 0-4.09 2l-.22.16a17 17 0 0 0-7.3 12.16v.1l-.08 1.7v404.28h652.38zm-25.64 394.46h-601V26.86h601zM151.87 2.78c.23 0 .47-.08.7-.1a8.42 8.42 0 0 0-.7.1zm623.83.15l.3.07zm-631.2 2.7l.22-.16zm5.8-2.56a3.61 3.61 0 0 0 .61-.15c-.2.08-.4.08-.6.15zm-1.5.43l.47-.16zm-11.7 433.2h655.3v-1.06H134.24v1.06h2.87z"/><path fill="url(#E)" d="M53.97 448.86H460v.73H53.97z"/><path d="M792.4 436.7H54v.6h347.75v-.6h116v.6-.6h.45v.6H866v-.6z" fill="url(#F)"/><path fill="url(#G)" d="M460 448.86h406.03v.73H460z"/><use xlink:href="#d" fill="url(#H)"/><use xlink:href="#d" fill="url(#I)"/><use xlink:href="#e" fill="url(#J)"/><use xlink:href="#e" fill="url(#K)"/><path d="M508.38 446.1h0a9.38 9.38 0 0 0 9.38-8.8h0a9.39 9.39 0 0 1-9.38 8.8z" fill="url(#L)"/><path d="M508.38 446.1h0a9.38 9.38 0 0 0 9.38-8.8h0a9.39 9.39 0 0 1-9.38 8.8z" fill="url(#M)"/><path d="M460 437.3h57.76v-.6H402.2v.6z" fill="url(#N)"/><path d="M460 437.3h57.76v-.6H402.2v.6z" fill="url(#O)"/><path d="M402.24,437.3a9.41,9.41,0,0,0,9.38,8.8H460v-8.8Z" fill="url(#P)"/><path d="M402.24,437.3a9.41,9.41,0,0,0,9.38,8.8H460v-8.8Z" fill="url(#Q)"/><path d="M402.24,437.3a9.41,9.41,0,0,0,9.38,8.8H460v-8.8Z" fill="url(#R)"/><path d="M460,446.1h48.38a9.39,9.39,0,0,0,9.38-8.8H460Z" fill="url(#L)"/><path d="M460,446.1h48.38a9.39,9.39,0,0,0,9.38-8.8H460Z" fill="url(#M)"/><path d="M460,446.1h48.38a9.39,9.39,0,0,0,9.38-8.8H460Z" fill="url(#S)"/><path d="M402.2 436.7h-.46v.6h.5l-.03-.6z" fill="url(#N)"/><path d="M402.2 436.7h-.46v.6h.5l-.03-.6z" fill="url(#T)"/><path d="M518.25 436.7h-.45v.6h.5z" fill="url(#N)"/><path d="M518.25 436.7h-.45v.6h.5z" fill="url(#T)"/><use xlink:href="#f" fill="url(#U)"/><use xlink:href="#f" fill="url(#V)"/><path d="M411.16 446.8H460v-.7h-48.4a9.41 9.41 0 0 1-9.37-8.8h-.5v.1a9.42 9.42 0 0 0 9.41 9.4z" fill="url(#W)"/><use xlink:href="#g" fill="url(#X)"/><use xlink:href="#g" fill="url(#Y)"/><path d="M508.38 446.1H460v.7h48.84a9.4 9.4 0 0 0 9.41-9.39h0v-.1h-.5a9.38 9.38 0 0 1-9.38 8.79z" fill="url(#W)"/><path d="M402.24 437.3h0a9.41 9.41 0 0 0 9.37 8.8h0a9.41 9.41 0 0 1-9.37-8.8z" fill="url(#P)"/><path d="M402.24 437.3h0a9.41 9.41 0 0 0 9.37 8.8h0a9.41 9.41 0 0 1-9.37-8.8z" fill="url(#Q)"/><use xlink:href="#h" fill="url(#Z)"/><use xlink:href="#h" fill="url(#a)"/><path d="M54 449.6a362.7 362.7 0 0 0 88.2 10.83h635.63A362.46 362.46 0 0 0 866 449.59z" fill="url(#b)"/></svg>